<svg width="163" height="161" viewBox="0 0 163 161" fill="none" xmlns="http://www.w3.org/2000/svg">
<path d="M137.211 15.3794C136.668 15.3207 136.593 15.0461 136.355 14.63C135.046 12.337 131.517 10.6384 129.276 9.61299C119.116 4.96344 106.95 2.94711 95.8702 2.16036C85.1529 1.39936 75.5553 3.4197 65.4798 6.67773C60.5388 8.27545 55.1451 9.7917 51.0652 13.0895C46.7344 16.5901 43.7616 21.506 40.6285 25.9755C37.7504 30.0811 34.7684 33.8974 32.9721 38.6116C31.238 43.1626 30.7571 48.0834 29.8282 52.8299C28.0983 61.6702 24.9989 69.5004 20.0118 77.1238C13.8648 86.5203 8.58405 96.1277 4.2712 106.476C0.516993 115.485 1.5252 124.485 6.49541 132.748C11.9833 141.871 21.6605 147.693 31.3467 151.983C40.1678 155.89 50.3271 158.913 60.069 158.999C75.7524 159.136 88.7802 148.575 101.067 140.617C109.97 134.851 119.16 129.394 127.587 122.964C133.412 118.519 137.118 113.047 141.231 107.184C146.542 99.6141 152.497 92.4857 156.501 84.1185C159.548 77.7527 160.462 71.0498 160.864 64.1129C161.128 59.5632 161.135 55.026 159.688 50.6441C158.36 46.6214 155.878 43.4413 153.935 39.7358C152.214 36.4538 150.825 33.1443 148.674 30.0765C146.449 26.9035 143.7 24.1492 141.338 21.0834C140.119 19.5015 137.311 13.5058 135.286 13.5058" stroke="white" stroke-width="3" stroke-linecap="round"/>
</svg>
