<svg width="244" height="245" viewBox="0 0 244 245" fill="none" xmlns="http://www.w3.org/2000/svg">
<path d="M153.5 132.5C153.446 132.013 152.183 130.183 153.5 131.5C154.065 132.065 154.426 132.808 154.75 133.528C155.227 134.587 155.187 134.665 155.611 136.278C157.892 144.947 160.16 153.754 161.833 162.556C165.39 181.264 164.69 199.646 158.861 217.833C156.019 226.7 150.589 233.071 143.056 238.445C139.723 240.821 134.37 244.459 130.111 242.278C124.244 239.273 119.326 233.446 115 228.667C110.793 224.02 106.89 219.078 103.667 213.695C99.0362 205.962 96.418 197.564 94.6111 188.778C92.9419 180.661 91.2263 171.734 93.2778 163.528C97.0952 148.258 107.224 136.059 114.861 122.695C115.039 122.384 116.515 119.967 116.111 120.5C111.243 126.922 106.906 133.722 102.306 140.333C90.1819 157.756 76.3113 173.877 54.8334 178.833C49.7281 180.012 40.4537 181.64 35.2222 182.389C30.7647 183.027 26.2262 183.687 21.75 182.917C17.1809 182.131 12.5786 180.634 9.22224 177.278C5.21181 173.267 3.23409 167.107 2.41669 161.639C0.726873 150.335 1.42512 137.023 7.33335 126.945C11.9628 119.047 19.753 112.833 26.5834 106.945C32.3399 101.982 38.2788 97.4636 45.5 94.8334C59.9901 89.5559 76.7612 91.5783 91.2222 96.0279C94.0233 96.8898 96.6509 98.1054 99.2778 99.389C99.5337 99.5141 102.527 101.214 101.083 99.8334C98.4572 97.3214 96.5957 94.1741 94.7778 91.0557C91.1755 84.8761 87.7809 78.3967 86.1111 71.389C84.2141 63.4277 84.75 55.0143 85.5278 46.9445C86.0627 41.3946 86.9413 35.9721 89.3334 30.889C94.0928 20.7752 100.805 12.4363 109.5 5.50011C133.165 -13.3789 144.856 50.2583 145.389 61.7223C145.768 69.8689 144.069 78.4262 145.222 86.5001C145.678 89.6891 143.8 80.1658 143.778 76.9445C143.716 67.8607 147.954 58.3724 152.722 50.8334C156.622 44.6686 161.432 38.5933 166.306 33.1668C173.517 25.1377 184.991 21.3569 194.833 17.7779C204.264 14.3485 215.787 9.94842 226.083 11.0279C231.946 11.6425 233.376 16.1149 234.5 21.2223C238.129 37.7181 234.905 58.2525 225 72.1668C220.939 77.8712 215.245 82.115 209.278 85.639C203.243 89.2026 196.735 93.2089 190.139 95.639C186.685 96.9116 182.441 98.0001 178.722 98.0001C176.457 98.0001 182.545 95.5386 184.611 94.6112C189.894 92.2403 196.436 88.1411 202.389 87.9445C209.705 87.703 217.774 94.3081 222.944 98.7779C230.933 105.683 236.043 116.541 239.694 126.25C244.01 137.722 240.516 151.188 231.889 159.889C222.745 169.111 211.966 164.964 201.389 160.167C190.755 155.344 182.096 149.096 173.889 140.889C170.099 137.099 166.381 133.249 162.722 129.333C162.021 128.583 161.249 127.444 160.25 127C158.171 126.076 156.35 123.8 155 126.5" stroke="white" stroke-width="3" stroke-linecap="round"/>
</svg>
