<svg width="356" height="243" viewBox="0 0 356 243" fill="none" xmlns="http://www.w3.org/2000/svg">
<path d="M1.5863 200.66C3.57956 200.66 8.06279 199.811 9.38277 201.526C15.3784 209.321 25.0707 210.283 34.1438 213.005C46.0266 216.569 56.0288 224.433 67.8562 227.659C74.6951 229.524 78.7732 233.893 86.2645 234.517C92.4716 235.034 98.5781 236.435 104.745 236.972C109.487 237.384 114.083 236.309 118.533 238.343C128.348 242.83 137.865 239.746 147.842 238.415C159.539 236.856 171.14 238.518 182.493 234.734C195.479 230.405 212.82 228.743 224.291 220.801C228.168 218.117 226.823 213.054 230.355 210.406C234.833 207.047 238.765 205.554 244.287 204.27C254.071 201.994 268.568 196.638 275.04 188.316C276.805 186.047 280.148 184.233 281.465 181.747C283.696 177.532 283.412 174.968 287.168 171.063C293.397 164.584 296.737 156.587 303.699 151.138C313.441 143.514 323.304 136.878 333.947 130.492C340.156 126.766 348.7 120.225 351.416 113.311C354.501 105.459 354.869 102.079 352.499 94.1808C350.872 88.7553 348.529 82.8103 348.529 77.144C348.529 74.2776 348.048 70.9332 348.673 68.1204C349.602 63.9395 352.321 61.3731 352.427 56.7144C352.558 50.9544 352.091 45.0111 347.229 41.1215C340.98 36.1216 334.074 29.0827 327.161 25.312C320.77 21.8264 315.951 15.45 310.196 10.9463C299.699 2.73104 299.935 0.99592 284.858 3.14984" stroke="white" stroke-width="3" stroke-linecap="round"/>
</svg>
