<svg width="251" height="87" viewBox="0 0 251 87" fill="none" xmlns="http://www.w3.org/2000/svg">
<path d="M2 64C2 72.1067 13.6634 79.7484 19.8333 82.8334C32.6333 89.2333 45.3675 83.5906 50.2222 70.3334C51.7941 66.041 51.0045 57.2178 56.8889 62.2222C62.8417 67.2849 68.1735 69.828 76.1111 70.5556C89.7568 71.8064 108.689 72.7332 110.778 55.5C111.854 46.6246 110.622 51.1256 112.722 57.0556C118.817 74.2633 155.798 68.719 161.722 53.6111C163.187 49.8758 161.712 44.398 165.222 49.4445C171.409 58.3386 183.449 66.7543 194.778 63.8889C205.583 61.1557 215.282 50.8614 216.778 39.8334C218.141 29.7782 214.334 38.6817 218.389 43.3334C224.778 50.662 237.436 46.3262 243.111 40.3334C250.649 32.373 250.465 21.6805 244.222 13.2222C243.383 12.0857 233.869 2.81173 234.222 2.22224C234.76 1.32644 234.474 2.50523 232 3.00002" stroke="white" stroke-width="3" stroke-linecap="round"/>
</svg>
