<svg width="244" height="245" viewBox="0 0 244 245" fill="none" xmlns="http://www.w3.org/2000/svg">
<path d="M153.883 132.476C153.829 131.989 152.566 130.159 153.883 131.476C154.448 132.041 154.809 132.784 155.133 133.504C155.61 134.563 155.57 134.641 155.994 136.254C158.276 144.923 160.543 153.73 162.217 162.532C165.773 181.24 165.074 199.622 159.244 217.81C156.402 226.676 150.973 233.047 143.439 238.421C140.106 240.798 134.753 244.435 130.494 242.254C124.627 239.249 119.71 233.422 115.383 228.643C111.176 223.996 107.274 219.054 104.05 213.671C99.4194 205.938 96.8012 197.54 94.9943 188.754C93.325 180.637 91.6094 171.71 93.661 163.504C97.4783 148.235 107.607 136.036 115.244 122.671C115.422 122.36 116.898 119.943 116.494 120.476C111.626 126.898 107.289 133.698 102.689 140.31C90.5651 157.732 76.6945 173.853 55.2165 178.81C50.1113 179.988 40.8369 181.616 35.6054 182.365C31.1479 183.003 26.6094 183.663 22.1332 182.893C17.5641 182.107 12.9618 180.61 9.60542 177.254C5.59499 173.244 3.61727 167.083 2.79987 161.615C1.11005 150.311 1.8083 136.999 7.71653 126.921C12.3459 119.023 20.1362 112.809 26.9665 106.921C32.7231 101.958 38.6619 97.4396 45.8832 94.8095C60.3733 89.532 77.1444 91.5544 91.6054 96.004C94.4065 96.8658 97.0341 98.0815 99.661 99.3651C99.9169 99.4901 102.91 101.19 101.467 99.8095C98.8403 97.2975 96.9788 94.1502 95.161 91.0317C91.5587 84.8522 88.1641 78.3727 86.4943 71.3651C84.5973 63.4038 85.1332 54.9904 85.911 46.9206C86.4459 41.3707 87.3245 35.9482 89.7165 30.8651C94.476 20.7513 101.189 12.4124 109.883 5.47618C133.548 -13.4028 145.239 50.2344 145.772 61.6984C146.151 69.8449 144.452 78.4022 145.605 86.4762C146.061 89.6652 144.183 80.1419 144.161 76.9206C144.099 67.8367 148.337 58.3484 153.105 50.8095C157.005 44.6447 161.815 38.5693 166.689 33.1428C173.9 25.1137 185.374 21.3329 195.217 17.754C204.647 14.3245 216.17 9.92449 226.467 11.004C232.329 11.6185 233.76 16.0909 234.883 21.1984C238.512 37.6942 235.288 58.2285 225.383 72.1428C221.322 77.8473 215.628 82.091 209.661 85.6151C203.627 89.1787 197.118 93.185 190.522 95.6151C187.068 96.8877 182.824 97.9762 179.105 97.9762C176.841 97.9762 182.928 95.5146 184.994 94.5873C190.277 92.2164 196.819 88.1172 202.772 87.9206C210.088 87.6791 218.157 94.2842 223.328 98.754C231.316 105.659 236.426 116.518 240.078 126.226C244.393 137.698 240.9 151.164 232.272 159.865C223.128 169.087 212.349 164.94 201.772 160.143C191.138 155.32 182.479 149.072 174.272 140.865C170.482 137.075 166.765 133.225 163.105 129.31C162.404 128.559 161.633 127.42 160.633 126.976C158.554 126.052 156.733 123.776 155.383 126.476" stroke="white" stroke-width="3" stroke-linecap="round"/>
</svg>
