<svg width="191" height="234" viewBox="0 0 191 234" fill="none" xmlns="http://www.w3.org/2000/svg">
<path d="M189.493 232.395C189.683 230.168 186.504 226.808 185.283 225.479C146.285 183.059 108.007 139.972 71.4485 95.4141C49.117 68.1963 27.4306 40.5295 12.962 8.23798C10.8188 3.45456 10.6974 0.429866 7.96943 6.60881C-4.0857 33.9137 4.68502 71.8393 12.0218 98.9696C21.0906 132.505 34.1139 170.325 61.0536 194.019C68.632 200.684 75.6851 204.507 85.8297 204.113C94.8768 203.761 105.383 205.201 114.153 202.863C125.126 199.938 127.304 187.459 136.633 182.878C139.57 181.436 142.212 179.481 143.63 176.414C147.41 168.233 148.863 156.861 149.977 147.888C152.181 130.12 153.998 106.962 144.52 90.7263C135.525 75.3164 117.959 68.5424 104.779 57.5157C94.7044 49.0873 85.418 39.3022 75.7953 30.3403C64.0433 19.3952 47.1734 7.32201 31.0745 3.45481C27.6195 2.62485 24.1455 2.8142 20.6504 2.26144C20.6172 2.25619 18.054 5.63379 16.6764 6.52844" stroke="white" stroke-width="3" stroke-linecap="round"/>
</svg>
