<svg width="211" height="213" viewBox="0 0 211 213" fill="none" xmlns="http://www.w3.org/2000/svg">
<path d="M177.617 19.3866C176.912 19.3083 176.814 18.9418 176.505 18.3866C174.806 15.3269 170.221 13.0604 167.311 11.6921C154.115 5.48797 138.313 2.79747 123.922 1.74766C110.002 0.732226 97.5364 3.42808 84.4499 7.77544C78.0324 9.90736 71.0268 11.9306 65.7277 16.331C60.1028 21.002 56.2416 27.5617 52.1721 33.5254C48.4339 39.0039 44.5608 44.0961 42.2277 50.3866C39.9754 56.4592 39.3507 63.0253 38.1444 69.3588C35.8975 81.1548 31.8718 91.6031 25.3944 101.775C17.4104 114.314 10.5516 127.133 4.94992 140.942C0.0738153 152.962 1.38331 164.973 7.83881 175.998C14.9667 188.171 27.5358 195.94 40.1166 201.664C51.5738 206.877 64.7691 210.911 77.4221 211.025C97.7924 211.209 114.713 197.117 130.672 186.498C142.235 178.803 154.171 171.522 165.117 162.942C172.683 157.011 177.497 149.709 182.839 141.887C189.737 131.785 197.472 122.274 202.672 111.109C206.629 102.615 207.816 93.6706 208.339 84.4143C208.682 78.3434 208.69 72.2891 206.811 66.4421C205.086 61.0744 201.863 56.8311 199.339 51.8866C197.103 47.5072 195.3 43.0913 192.505 38.9977C189.615 34.7637 186.046 31.0886 182.978 26.9977C181.395 24.8869 177.746 16.8866 175.117 16.8866" stroke="white" stroke-width="3" stroke-linecap="round"/>
</svg>
