<svg width="248" height="394" viewBox="0 0 248 394" fill="none" xmlns="http://www.w3.org/2000/svg">
<path d="M246.187 392C246.434 388.229 242.287 382.536 240.694 380.286C189.813 308.431 139.872 235.448 92.1731 159.971C63.037 113.867 34.7426 67.0031 15.8652 12.3052C13.0689 4.20262 12.9106 -0.920853 9.35133 9.54554C-6.37713 55.7968 5.06613 120.038 14.6384 165.994C26.4707 222.799 43.4622 286.861 78.6108 326.996C88.4984 338.286 97.7007 344.762 110.936 344.094C122.74 343.498 136.448 345.937 147.89 341.977C162.207 337.022 165.049 315.885 177.22 308.125C181.051 305.681 184.499 302.37 186.349 297.175C191.281 283.318 193.177 264.055 194.63 248.855C197.506 218.759 199.876 179.533 187.51 152.031C175.774 125.928 152.855 114.454 135.659 95.7757C122.515 81.499 110.399 64.9242 97.8445 49.7439C82.5115 31.2042 60.5011 10.7536 39.4968 4.20305C34.9889 2.79719 30.4564 3.11793 25.8963 2.18162C25.853 2.17273 22.5088 7.89398 20.7114 9.40941" stroke="white" stroke-width="3" stroke-linecap="round"/>
</svg>
