<svg width="374" height="293" viewBox="0 0 374 293" fill="none" xmlns="http://www.w3.org/2000/svg">
<path d="M80.5254 220.093C81.8653 220.093 84.8083 220.654 85.9052 219.777C96.6248 211.201 110.736 205.425 122.456 198.1C149.357 181.286 170.625 158.655 195.558 139.397C231.481 111.649 272.703 93.2798 311.223 69.7762C322.281 63.0289 332.494 55.2124 342.077 46.5166C343.61 45.1261 348.107 41.9155 348.248 39.2381C348.362 37.0856 341.277 36.7812 339.704 36.0735C337.065 34.886 337.972 34.8494 337.647 33.2254C336.764 28.809 320.593 20.6651 316.919 18.6683C311.197 15.5587 301.729 8.06702 295.004 8.06702C291.979 8.06702 287.732 20.8602 285.669 23.3361C279.613 30.6035 271.545 34.6766 264.862 41.1368C260.922 44.9451 262.348 48.9569 260.59 53.4786C259.396 56.5479 256.462 59.5934 255.764 62.735C255.194 65.2975 255.768 67.476 254.181 69.8553C251.016 74.6038 243.663 79.108 239.387 83.3839C229.523 93.2482 235.256 69.5916 236.855 65.504C242.159 51.9504 256.056 44.5624 265.969 34.6494C271.231 29.388 291.456 16.2909 281.318 7.11765C274.491 0.941092 256.184 3.63662 247.773 3.63662C232.683 3.63662 213.381 -1.28035 199.513 5.93093C189.25 11.2681 187.022 28.6521 185.194 38.526C183.96 45.1858 183.847 49.6095 180.289 55.6147C177.832 59.7609 175.079 65.7778 174.592 70.6464C173.502 81.5511 178.192 89.8287 183.058 99.0485C191.567 115.171 169.01 118.009 157.424 115.03C146.613 112.249 150.738 96.4393 151.412 88.6054C152.767 72.8486 152.728 58.3941 157.504 43.2729C159.925 35.6065 160.652 27.5132 163.833 20.0924C165.365 16.5163 168.795 14.8156 170.874 11.548C175.255 4.66369 154.249 3.4508 150.937 3.71573C137.799 4.76675 121.639 2.45082 109.007 5.85182C93.6198 9.99441 90.9895 16.8918 86.2216 30.6937C84.0022 37.1183 76.8337 42.6183 79.8925 49.2065C82.1537 54.0768 79.712 60.0883 78.7849 65.1876C76.2619 79.0638 80.9732 91.6857 88.1204 103.321C94.1644 113.16 98.854 124.909 101.57 136.074C102.832 141.264 110.158 156.132 107.424 160.916C104.778 165.546 93.5611 155.907 91.997 154.508C83.0616 146.513 81.2398 138.771 77.4399 128.083C73.63 117.368 66.8356 108.1 62.25 97.7827C59.117 90.7334 61.2997 82.7436 60.3512 75.3142C58.7996 63.1595 50.9958 52.2459 47.06 40.7412C44.8182 34.1881 41.0956 26.6928 34.9555 22.9405C29.9061 19.8547 24.9077 20.4274 19.7656 23.1779C5.73053 30.685 2.2022 40.1248 2.2022 55.2192C2.2022 65.3882 0.868791 76.3577 5.05031 85.9155C8.99232 94.9258 16.6621 102.445 22.6137 110.124C27.2751 116.139 31.5032 121.873 33.5315 129.27C35.6697 137.068 33.1958 142.911 32.4239 150.631C30.7447 167.423 44.19 174.577 53.7847 185.916C57.7543 190.607 61.1091 195.073 64.5443 200.157C67.8419 205.037 65.3255 211.312 67.2342 216.691C71.6569 229.156 82.5322 235.558 93.9748 240.663C108.268 247.04 121.376 255.019 135.985 260.758C150.745 266.557 163.318 276.255 178.152 281.961C190.891 286.86 204.131 289.872 217.789 289.872C232.019 289.872 251.111 293.117 264.308 286.866C272.602 282.937 281.633 276.424 288.121 269.935C299.801 258.256 282.172 251.185 272.931 247.783C249.311 239.09 225.054 231.559 200.779 224.998C183.278 220.268 166.727 213.097 149.197 208.384C149.016 208.336 136.245 204.446 138.121 203.321C141.363 201.376 149.258 200.886 152.836 200.473C160.177 199.626 166.39 201.141 173.406 203.005C183.734 205.748 194.744 205.153 205.21 207.356C218.94 210.247 232.505 213.239 246.428 215.109C257.961 216.658 270.409 217.233 281.318 221.597C292.992 226.267 305.025 237.636 318.422 235.521C330.12 233.674 355.485 212.799 333.612 206.011C308.442 198.2 278.834 201.186 252.836 197.625C236.157 195.34 219.743 189.819 203.311 185.916C196.346 184.262 189.843 181.057 183.058 178.796C181.772 178.367 171.215 175.543 172.298 174.524C175.923 171.112 188.505 170.891 193.026 170.568C210.2 169.341 227.368 173.76 244.292 175.948C259.943 177.971 275.488 179.609 290.969 182.751C302.34 185.06 313.152 189.157 324.751 190.188C332.337 190.863 354.728 196.437 358.929 187.103C361.279 181.879 362.489 175.952 362.489 170.251C362.489 162.776 366.328 156.029 366.682 148.416C367.468 131.504 361.144 126.299 343.818 128.321C312.913 131.926 281.717 134.458 250.938 138.922C238.156 140.776 226.169 144.414 213.121 144.618C207.256 144.71 222.393 140.05 224.355 139.239C242.601 131.695 263.162 126.635 282.583 123.257C295.054 121.089 307.582 121.646 320.084 119.302C328.34 117.754 336.768 117.028 345.084 115.821C352.937 114.681 366.211 114.256 368.897 104.586C371.639 94.7169 374.717 87.2399 368.976 77.8458C365.725 72.526 364.115 66.7279 361.065 61.3901C360.123 59.7417 355.068 53.9656 353.232 53.5578C351.201 53.1063 349.672 54.0873 349.672 51.3426C349.672 46.794 340.654 50.2653 338.28 50.6305" stroke="white" stroke-width="3" stroke-linecap="round"/>
</svg>
