<svg width="206" height="183" viewBox="0 0 206 183" fill="none" xmlns="http://www.w3.org/2000/svg">
<path d="M5.38288 44C8.16323 43.691 11.8615 40.375 13.8829 39.2777C46.7843 21.417 82.7452 6.76901 120.272 2.99997C124.335 2.59188 166.912 -1.11941 148.55 12.2222C132.051 24.2098 113.513 34.0912 95.7162 44C92.6171 45.7255 89.3274 47.1334 86.3829 49.1111C84.6718 50.2603 90.4331 50.0159 92.494 50.0555C123.213 50.6463 155.219 51.0642 185.383 57.3889C186.219 57.5642 188.352 58.2517 187.605 58.6666C181.888 61.8428 171.439 62.9522 165.605 64.3333C160.483 65.5458 141.301 70.0412 135.938 71.4444C131.298 72.6586 119.87 74.7302 123.216 78.1666C125.283 80.2891 130.807 82.3332 132.938 83.1666C142.765 87.0084 152.94 89.8811 162.938 93.2222C175.523 97.4277 191.355 101.403 201.994 109.833C207.093 113.874 202.285 119.217 197.827 121.333C184.53 127.645 166.179 123.511 152.494 121.333C144.267 120.024 138.014 118.791 129.938 117.167C125.915 116.357 116.898 113.025 112.383 114.111C109.315 114.849 128.717 139.634 129.716 141C131.999 144.121 157.705 175.664 148.272 179.556C141.895 182.186 133.376 178.886 127.438 176.667C116.103 172.429 105.124 166.964 94.6051 161C82.6821 154.239 71.783 146.197 59.0495 141C53.9806 138.931 48.6556 136.519 43.9384 133.778C32.8469 127.333 21.3424 123.292 10.9384 115.778C9.3883 114.658 3.63491 113.142 3.38288 111C3.17737 109.253 0.755139 106.496 3.38288 110" stroke="white" stroke-width="3" stroke-linecap="round"/>
</svg>
