<svg width="264" height="131" viewBox="0 0 264 131" fill="none" xmlns="http://www.w3.org/2000/svg">
<path d="M252 49C253.389 50.235 254.525 49.7221 256 48.7778C259.049 46.8266 262.027 42.8758 261.444 39C259.454 25.7526 240.802 20.9339 230.111 19.2223C223.22 18.119 213.299 17.4685 207.111 21.7778C205.103 23.1765 206.297 22.5826 205.333 19.8889C199.823 4.49249 182.832 -1.08988 168 2.66671C156.039 5.69608 147.488 11.6099 140.222 21.1112C138.91 22.8267 139.148 16.7807 137.778 15.1112C132.176 8.28398 122.686 4.71622 114 4.77782C102.735 4.85772 91.9906 10.7421 83.5556 17.7778C79.0117 21.5679 71.4494 28.7363 73.3334 35.6667C74.1523 38.6791 79.5571 40.1437 80.4445 36.3334C81.7704 30.6397 70.8572 28.3788 67.5556 28.1112C48.4727 26.5639 33.2359 49.1494 36.1111 67C37.8119 77.559 51.8633 65.2472 39.5556 63.1112C27.3615 60.9948 13.4937 76.5573 8.44447 86C3.78525 94.7134 -0.309061 104.241 3.44447 114C7.50349 124.553 13.4358 129 24.7778 129C29.135 129 31.5284 125.329 34 122.222C35.8429 119.906 37.5362 119 34 119" stroke="white" stroke-width="3" stroke-linecap="round"/>
</svg>
