<svg width="195" height="189" viewBox="0 0 195 189" fill="none" xmlns="http://www.w3.org/2000/svg">
<path d="M193.383 83C192.253 84.1298 191.238 85.286 189.827 86.0556C185.771 88.2682 181.996 91.5227 178.161 94.0556C172.146 98.0276 172.929 97.4145 167.494 100.833C166.615 101.386 164.176 102.369 165.105 102.833C166.316 103.439 182.628 103.226 182.049 104.222C179.9 107.924 152.732 119.291 157.383 124.556C159.637 127.107 164.621 127.423 167.383 129.389C173.924 134.046 169.447 140.708 165.049 145.056C158.532 151.5 150.363 156.324 142.272 160.5C138.302 162.549 138.808 162.537 142.827 163.111C151.832 164.398 159.05 170.049 147.494 175.556C141.945 178.199 132.631 178.187 129.383 184C122.434 196.434 101.597 170.145 106.772 159.278C109.982 152.536 120.67 156.388 115.049 147.778C110.37 140.609 104.991 132.303 105.161 123.333C105.328 114.483 112.938 111.068 119.494 107.222C134.12 98.6425 123.7 90.5475 123.549 77.2778C123.466 69.8992 128.93 66.0461 135.327 63.8889C136.897 63.3595 146.592 62.7201 146.772 60.1111C146.995 56.8671 134.77 43.7126 140.438 42.1667C141.178 41.9649 143.697 42.4174 141.938 41.7778C138.326 40.464 135.087 38.3239 131.605 36.7222C125.074 33.7177 115.931 34.6857 109.161 36.2222C101.969 37.8543 107.849 40.7746 107.049 45.1111C105.783 51.9792 87.7026 53.4392 82.9384 54.5556C80.6586 55.0898 69.1156 56.2369 67.6606 59.6667C66.4812 62.4466 75.8497 68.6356 77.2717 70.5C87.2642 83.6012 54.8603 82.158 50.3273 86.3889C46.0414 90.389 63.0045 102.473 57.3828 110.778C53.9822 115.801 48.3644 116.856 43.7161 120C40.203 122.377 46.6327 128.367 47.8273 130.111C54.6732 140.107 61.7531 154.881 44.9384 158.167C43.4922 158.449 34.4357 158.064 33.7717 160.278C33.1917 162.211 35.8492 164.907 34.3828 166.667C31.6758 169.915 21.7196 164.409 18.8273 163C13.8743 160.587 10.8208 155.679 8.38281 150.889C3.70817 141.705 -1.94775 126.524 6.54948 117.833C8.08856 116.259 13.5102 114.579 14.3828 112.833C15.0862 111.426 9.69665 104.582 9.16059 103.389C7.57471 99.859 6.61452 96.1026 8.49392 92.4444C10.3918 88.7504 15.6834 86.804 16.8273 82.7778C18.1494 78.1238 13.3818 71.6617 12.4939 67.2222C11.2329 60.9173 12.4821 55.0722 17.8273 51.1111C18.8728 50.3363 25.8024 48.4593 24.2717 46.3333C21.4069 42.3545 18.3852 39.6776 17.2717 34.5556C14.9239 23.7556 19.0909 12.8324 16.3828 2" stroke="white" stroke-width="3" stroke-linecap="round"/>
</svg>
