<svg width="180" height="87" viewBox="0 0 180 87" fill="none" xmlns="http://www.w3.org/2000/svg">
<path d="M40.6166 66.3867C39.7947 66.3867 38.6313 65.8374 38.0332 65.2756C32.8166 60.3752 27.5045 55.4437 22.6721 50.1645C15.743 42.5947 8.09532 33.8534 4.44991 24.109C2.18676 18.0594 1.18964 10.7 2.03325 4.27562C2.91939 -2.47271 8.54449 7.77582 9.64436 9.44229C13.1765 14.794 16.4326 20.1339 18.811 26.109C20.4401 30.2015 21.4835 34.512 23.1444 38.5812C23.2614 38.8678 27.4104 47.3151 28.7277 45.9978C30.0312 44.6943 30.9246 42.1421 31.9221 40.5534C35.9394 34.1555 39.9636 25.8043 47.4221 22.9701C53.3593 20.7139 59.9003 20.4726 66.1721 20.4978C68.8598 20.5087 71.6306 20.8282 74.1166 19.5534C77.0245 18.0621 79.3833 15.4485 82.061 13.609C83.2636 12.7828 101.503 3.61261 102.089 5.66451C102.85 8.32854 93.8195 10.5225 93.0055 10.8312C86.5283 13.2872 80.0417 15.6741 73.8388 18.7756C70.4034 20.4933 67.1952 22.6294 63.7277 24.2756C58.515 26.7503 53.3443 29.5628 47.9499 31.609C45.528 32.5276 43.7879 35.3947 41.8944 37.1367C37.5145 41.1662 39.6203 46.0067 41.6166 50.7756C42.9239 53.8987 47.4089 51.9628 49.6166 50.859C55.607 47.8637 61.2845 46.831 67.8944 45.8867C77.1514 44.5643 86.2055 43.3397 95.561 42.6645C102.14 42.1897 109.218 40.0068 114.728 45.1367C117.315 47.5452 115.946 51.3419 113.505 53.2756C109.884 56.1446 104.19 56.6611 99.8388 57.8867C97.4454 58.5609 92.0702 63.9162 95.9221 66.0256C100.089 68.3075 107.026 66.0291 111.367 65.4145C116.658 64.6653 121.746 64.0065 126.922 62.6645C137.903 59.8177 148.33 61.7021 159.005 64.8867C163.425 66.2051 167.693 67.7193 171.783 69.859C174.119 71.081 177.364 72.3347 177.533 75.3867C177.903 82.047 166.971 83.0493 162.505 83.2756C157.121 83.5486 151.721 83.1932 146.339 83.4978C143.02 83.6857 139.809 84.5171 136.505 84.7756C131.31 85.1822 126.099 84.2554 120.95 83.6645C116.739 83.1813 112.297 84.6617 108.144 83.8312C104.183 83.0388 101.325 80.7379 97.6166 83.3867" stroke="white" stroke-width="3" stroke-linecap="round"/>
</svg>
