<svg width="264" height="375" viewBox="0 0 264 375" fill="none" xmlns="http://www.w3.org/2000/svg">
<path d="M261.986 373C262.249 369.41 257.846 363.99 256.155 361.848C202.13 293.441 149.105 223.959 98.4603 152.104C67.5246 108.212 37.4826 63.5964 17.4393 11.5229C14.4702 3.80906 14.3021 -1.06859 10.5231 8.89563C-6.17687 52.9278 5.97317 114.087 16.1367 157.838C28.6998 211.917 46.7408 272.906 84.0604 311.115C94.5586 321.863 104.329 328.028 118.383 327.392C130.915 326.825 145.469 329.148 157.619 325.377C172.82 320.659 175.837 300.537 188.76 293.149C192.828 290.823 196.489 287.671 198.452 282.725C203.69 269.533 205.703 251.194 207.245 236.723C210.299 208.071 212.815 170.727 199.686 144.544C187.225 119.694 162.891 108.77 144.632 90.9885C130.677 77.3968 117.812 61.6173 104.482 47.1653C88.2019 29.5151 64.8321 10.0458 42.5304 3.80947C37.7442 2.47107 32.9317 2.77642 28.09 1.88502C28.044 1.87656 24.4932 7.32331 22.5848 8.76603" stroke="white" stroke-width="3" stroke-linecap="round"/>
</svg>
