<svg width="170" height="284" viewBox="0 0 170 284" fill="none" xmlns="http://www.w3.org/2000/svg">
<path d="M65.1737 2.33626C63.7932 1.9553 61.8004 1.90305 60.994 3.87663C56.5985 14.634 56.3183 30.8912 53.9254 42.5253C51.5895 53.8821 50.5439 64.4919 49.1382 75.8387C48.4518 81.379 21.2663 66.4596 16.7352 65.5499C5.58204 63.3108 3.64914 74.5877 3.87904 87.497C4.09606 99.6823 3.34649 112.209 2.51355 124.352C1.9898 131.988 2.48826 145.354 9.36865 148.564C14.0211 150.734 20.8278 145.548 25.2187 144.087C32.9031 141.529 41.1588 139.403 49.1178 139.33C55.417 139.271 62.7687 140.629 68.9965 141.929C71.0462 142.357 75.9482 145.28 77.7066 143.948C84.3893 138.883 86.7394 120.588 88.834 112.192C91.6478 100.913 96.3968 92.9376 97.4303 80.5067C98.2259 70.9369 96.4508 61.4319 96.4167 51.8459C96.3883 43.8785 104.021 49.3775 107.893 51.4532C123.715 59.9353 130.795 59.3664 128.241 84.6798C125.202 114.801 117.777 145.424 112.9 175.21C111.231 185.406 101.505 191.064 95.1992 196.879C87.4917 203.986 77.8789 209.478 68.4158 210.653C61.2236 211.546 41.8588 207.194 37.0438 214.887C33.262 220.93 30.6598 229.65 32.3138 237.441C34.7887 249.101 44.0465 253.799 48.8503 263.17C51.5621 268.46 51.921 275.283 55.9636 279.468C62.9115 286.66 75.1145 278.647 82.0757 275.225C99.8539 266.487 118.216 260.385 134.3 246.825C137.664 243.988 145.365 238.281 147.288 233.573C158.213 206.836 159.558 177.342 164.018 148.14C165.239 140.142 166.63 132.183 167.936 124.207C168.71 119.476 169.088 122.451 166.388 125.512" stroke="white" stroke-width="3" stroke-linecap="round"/>
</svg>
