<svg width="132" height="170" viewBox="0 0 132 170" fill="none" xmlns="http://www.w3.org/2000/svg">
<path d="M50.3533 2.56958C49.2952 2.34468 47.7679 2.31384 47.1498 3.47896C43.7808 9.82966 43.566 19.4273 41.732 26.2956C39.9417 33.0002 39.1403 39.2638 38.0628 45.9625C37.5367 49.2333 16.7003 40.4254 13.2274 39.8884C4.67909 38.5665 3.1976 45.2239 3.37382 52.8451C3.54015 60.0388 2.96564 67.4339 2.32723 74.6029C1.9258 79.1109 2.30785 87.0016 7.58134 88.8966C11.1472 90.1779 16.3643 87.1162 19.7297 86.2535C25.6194 84.7436 31.947 83.4884 38.0472 83.445C42.8752 83.4107 48.51 84.2118 53.2833 84.9796C54.8543 85.2323 58.6115 86.9581 59.9592 86.1714C65.0812 83.1815 66.8824 72.3805 68.4878 67.4239C70.6445 60.7654 74.2843 56.057 75.0765 48.7183C75.6863 43.0686 74.3258 37.4573 74.2996 31.7981C74.2779 27.0945 80.128 30.3409 83.0956 31.5663C95.2221 36.5738 100.649 36.2379 98.6914 51.1819C96.3623 68.9642 90.6714 87.0428 86.9336 104.627C85.6542 110.647 78.1993 113.987 73.3664 117.42C67.459 121.616 60.0913 124.858 52.8382 125.551C47.3257 126.079 32.4835 123.509 28.793 128.051C25.8945 131.618 23.9 136.766 25.1677 141.366C27.0646 148.249 34.1603 151.023 37.8422 156.556C39.9206 159.679 40.1957 163.707 43.2942 166.177C48.6194 170.423 57.9724 165.692 63.3079 163.672C76.9341 158.514 91.0079 154.911 103.335 146.906C105.914 145.231 111.816 141.862 113.29 139.083C121.664 123.298 122.694 105.886 126.112 88.6462C127.049 83.9247 128.115 79.2258 129.116 74.5174C129.709 71.724 129.999 73.4806 127.93 75.2877" stroke="white" stroke-width="3" stroke-linecap="round"/>
</svg>
