<svg width="180" height="271" viewBox="0 0 180 271" fill="none" xmlns="http://www.w3.org/2000/svg">
<path d="M68.1638 2.1206C66.698 1.75792 64.5822 1.70818 63.726 3.58707C59.0589 13.8283 58.7614 29.3055 56.2207 40.3814C53.7406 51.1933 52.6305 61.2941 51.1378 72.0964C50.4091 77.3709 21.5444 63.1673 16.7335 62.3013C4.89149 60.1696 2.8392 70.9054 3.0833 83.1953C3.31372 94.796 2.51786 106.721 1.63347 118.282C1.07737 125.552 1.60662 138.276 8.91198 141.332C13.8518 143.399 21.0789 138.461 25.741 137.07C33.9001 134.635 42.6656 132.611 51.1162 132.541C57.8045 132.486 65.6103 133.778 72.2227 135.016C74.399 135.423 79.6038 138.206 81.4708 136.938C88.5662 132.116 91.0615 114.698 93.2855 106.705C96.273 95.9678 101.315 88.375 102.413 76.5404C103.257 67.4298 101.373 58.3809 101.337 49.2548C101.306 41.6697 109.411 46.9049 113.522 48.881C130.32 56.9561 137.838 56.4144 135.126 80.5133C131.9 109.189 124.016 138.343 118.838 166.7C117.066 176.407 106.739 181.793 100.044 187.329C91.8603 194.095 81.6537 199.324 71.6061 200.442C63.9697 201.293 43.4088 197.149 38.2965 204.473C34.2811 210.226 31.5182 218.528 33.2743 225.945C35.9021 237.045 45.7316 241.518 50.8322 250.44C53.7115 255.476 54.0925 261.972 58.3849 265.956C65.7619 272.802 78.7186 265.174 86.1098 261.916C104.986 253.598 124.482 247.788 141.559 234.879C145.132 232.178 153.308 226.745 155.35 222.263C166.95 196.809 168.377 168.73 173.113 140.929C174.41 133.315 175.887 125.737 177.273 118.144C178.095 113.64 178.496 116.472 175.63 119.386" stroke="white" stroke-width="3" stroke-linecap="round"/>
</svg>
