<svg width="140" height="66" viewBox="0 0 140 66" fill="none" xmlns="http://www.w3.org/2000/svg">
<path d="M32.0772 50.1683C31.4414 50.1683 30.5414 49.7574 30.0788 49.3371C26.0433 45.671 21.9339 41.9817 18.1958 38.0323C12.8355 32.3693 6.91946 25.8298 4.09945 18.5399C2.34873 14.0142 1.57738 8.50856 2.22997 3.70241C2.91547 -1.34608 7.26693 6.32095 8.11776 7.56764C10.8501 11.5713 13.369 15.5661 15.2089 20.0361C16.4691 23.0978 17.2763 26.3226 18.5611 29.3667C18.6516 29.5812 21.8612 35.9007 22.8802 34.9152C23.8886 33.94 24.5797 32.0307 25.3514 30.8422C28.459 26.0559 31.5721 19.8082 37.3418 17.6879C41.9347 16.0001 46.9947 15.8195 51.8464 15.8384C53.9255 15.8465 56.069 16.0856 57.9921 15.1319C60.2416 14.0162 62.0663 12.061 64.1377 10.6848C65.068 10.0667 79.1772 3.20641 79.6308 4.74145C80.2196 6.73444 73.2338 8.37577 72.6041 8.60668C67.5935 10.4441 62.5756 12.2298 57.7772 14.55C55.1196 15.835 52.6378 17.4331 49.9554 18.6646C45.9231 20.5159 41.923 22.62 37.7501 24.1507C35.8766 24.838 34.5304 26.9829 33.0657 28.2861C29.6775 31.3006 31.3065 34.9218 32.8508 38.4895C33.8621 40.8259 37.3316 39.3776 39.0394 38.5518C43.6735 36.3111 48.0655 35.5385 53.1787 34.8321C60.3397 33.8428 67.3438 32.9266 74.581 32.4215C79.6705 32.0663 85.1456 30.4333 89.4079 34.271C91.4091 36.0728 90.3507 38.9132 88.4624 40.3598C85.6609 42.5061 81.2561 42.8925 77.8902 43.8094C76.0387 44.3138 71.8806 48.3201 74.8604 49.8982C78.0838 51.6053 83.4499 49.9008 86.8078 49.441C90.9013 48.8805 94.8371 48.3876 98.8413 47.3837C107.336 45.254 115.402 46.6637 123.66 49.0462C127.079 50.0324 130.38 51.1652 133.545 52.7659C135.352 53.6801 137.862 54.618 137.993 56.9013C138.279 61.8839 129.822 62.6337 126.368 62.8031C122.203 63.0072 118.025 62.7414 113.862 62.9693C111.295 63.1098 108.81 63.7318 106.255 63.9252C102.235 64.2294 98.2044 63.536 94.2213 63.094C90.9639 62.7325 87.5276 63.84 84.3152 63.2187C81.2505 62.6259 79.0398 60.9046 76.1711 62.8862" stroke="white" stroke-width="3" stroke-linecap="round"/>
</svg>
