<svg width="331" height="221" viewBox="0 0 331 221" fill="none" xmlns="http://www.w3.org/2000/svg">
<path d="M12.6768 166.57C12.7962 165.615 13.7066 164.253 14.1206 163.322C14.5841 162.279 15.6997 161.952 16.575 161.373C32.7225 150.687 47.6756 137.762 62.7763 125.711C98.5881 97.1312 134.182 69.1698 174.886 47.7466C198.043 35.5589 222.877 26.9647 246.137 14.9725C258.33 8.68648 268.493 -3.05433 281.943 4.72164C290.092 9.4323 297.394 16.4257 304.539 22.4802C316.236 32.3932 325.606 41.676 327.639 57.4921C329.112 68.9489 329.233 81.1655 324.535 91.9265C318.9 104.837 306.571 116.518 296.887 126.433C272.101 151.809 244.893 176.717 212.714 192.414C187.168 204.876 159.694 212.576 131.717 217.175C110.429 220.675 90.7631 219.306 70.8615 212.05C61.2598 208.549 52.6422 204.795 43.5739 199.994C37.9365 197.01 31.7975 196.308 25.9596 193.858C21.2493 191.881 -0.391708 187.689 2.57024 178.265C3.95047 173.873 13.9255 172.844 17.5856 171.696C27.7888 168.495 37.8687 165.374 47.9052 161.662C58.6377 157.692 72.7687 154.112 79.3798 143.975C85.9446 133.909 98.5294 129.41 107.606 121.669C117.607 113.138 128.721 103.154 132.944 90.4827C134.281 86.472 137.36 80.3104 133.161 87.7395C126.816 98.966 122.034 110.727 116.052 122.102C106.401 140.452 96.4474 158.708 86.7432 177.038C83.0554 184.004 77.4891 192.519 79.0189 200.933C80.3799 208.418 111.166 206.508 117.279 206.78C134.544 207.547 152.427 207.565 169.689 206.78C173.879 206.589 180.216 206.181 183.91 203.965C192.897 198.572 191.908 180.382 192.717 171.768C194.885 148.69 188.656 131.712 175.103 113.006C170.194 106.229 163.355 100.5 159.077 93.3703C156.433 88.9639 155.006 84.0729 152.724 79.5099C151.267 76.5955 148.664 74.5664 147.238 71.7135C145.201 67.6403 148.02 72.3412 149.548 73.3016C158.013 78.6227 168.084 81.957 177.197 86.007C185.996 89.9178 196.082 90.4382 204.412 95.1028C218.245 102.849 236.605 104.145 251.696 108.169C266.809 112.199 285.599 126.087 301.651 123.618C311.656 122.078 320.643 114.956 325.835 106.798C330.802 98.9911 325.97 82.9266 322.37 75.0342C319.805 69.4129 318.038 64.9049 318.038 58.6472C318.038 55.3155 318.711 51.3546 317.028 48.3241C315.484 45.5455 307.642 47.0247 305.261 47.0247C289.668 47.0247 274.075 47.0247 258.482 47.0247C233.114 47.0247 207.517 48.9109 182.178 50.2732C159.944 51.4685 134.773 48.2013 114.031 57.4199" stroke="white" stroke-width="3" stroke-linecap="round"/>
</svg>
