<svg width="330" height="221" viewBox="0 0 330 221" fill="none" xmlns="http://www.w3.org/2000/svg">
<path d="M12.0905 166.267C12.2099 165.311 13.1203 163.95 13.5342 163.018C13.9978 161.975 15.1134 161.648 15.9887 161.069C32.1362 150.383 47.0893 137.459 62.1899 125.407C98.0018 96.8275 133.596 68.8661 174.3 47.4428C197.457 35.2552 222.291 26.661 245.551 14.6688C257.744 8.38276 267.907 -3.35804 281.357 4.41793C289.505 9.12859 296.808 16.122 303.952 22.1765C315.65 32.0894 325.02 41.3723 327.053 57.1884C328.526 68.6452 328.646 80.8617 323.949 91.6228C318.314 104.533 305.984 116.215 296.3 126.129C271.514 151.506 244.307 176.413 212.127 192.111C186.582 204.572 159.108 212.273 131.131 216.872C109.843 220.371 90.1768 219.002 70.2752 211.746C60.6735 208.245 52.0559 204.491 42.9876 199.69C37.3502 196.706 31.2112 196.005 25.3733 193.554C20.663 191.577 -0.978012 187.386 1.98394 177.961C3.36417 173.57 13.3392 172.54 16.9993 171.392C27.2025 168.191 37.2824 165.07 47.3189 161.358C58.0514 157.388 72.1824 153.808 78.7935 143.671C85.3583 133.605 97.9431 129.107 107.02 121.365C117.021 112.835 128.134 102.85 132.358 90.179C133.695 86.1683 136.774 80.0067 132.575 87.4358C126.229 98.6623 121.448 110.424 115.466 121.798C105.815 140.148 95.8611 158.404 86.1569 176.734C82.4691 183.7 76.9028 192.215 78.4326 200.629C79.7936 208.114 110.58 206.205 116.693 206.476C133.957 207.244 151.841 207.261 169.103 206.476C173.293 206.286 179.63 205.877 183.324 203.661C192.311 198.269 191.322 180.079 192.131 171.464C194.299 148.387 188.069 131.408 174.517 112.702C169.607 105.926 162.769 100.196 158.491 93.0666C155.847 88.6602 154.42 83.7692 152.138 79.2062C150.681 76.2918 148.078 74.2627 146.652 71.4098C144.615 67.3366 147.434 72.0375 148.962 72.9979C157.427 78.319 167.498 81.6533 176.61 85.7033C185.41 89.6141 195.496 90.1345 203.826 94.7991C217.659 102.546 236.019 103.841 251.11 107.865C266.223 111.896 285.013 125.784 301.065 123.314C311.07 121.775 320.056 114.653 325.248 106.494C330.216 98.6873 325.383 82.6229 321.783 74.7305C319.219 69.1092 317.452 64.6012 317.452 58.3435C317.452 55.0118 318.125 51.0509 316.441 48.0204C314.898 45.2418 307.056 46.721 304.674 46.721C289.081 46.721 273.489 46.721 257.896 46.721C232.528 46.721 206.93 48.6072 181.591 49.9695C159.358 51.1648 134.186 47.8976 113.444 57.1162" stroke="white" stroke-width="3" stroke-linecap="round"/>
</svg>
