<svg width="276" height="266" viewBox="0 0 276 266" fill="none" xmlns="http://www.w3.org/2000/svg">
<path d="M19.7629 196.012C13.7719 196.012 13.1729 182.902 12.5324 180.042C2.91348 137.088 -4.59296 94.1593 10.8919 51.4644C16.9428 34.7809 26.7397 20.5275 34.3454 4.71957C36.9189 -0.629185 35.9378 2.78555 35.6214 7.45898C34.5562 23.1951 37.0474 38.4825 40.0569 53.9124C42.933 68.6586 45.6337 83.9395 50.6292 98.2092C52.5858 103.798 55.1734 109.534 58.042 114.762C60.2383 118.765 64.406 108.619 65.394 107.302C77.6469 90.9611 95.9033 78.9781 112.969 67.7843C125.476 59.5809 137.988 52.1054 152.707 48.1421C159.567 46.2949 166.383 45.1277 173.122 42.8382C178.221 41.1058 183.715 39.0732 189.163 38.6999C192.742 38.4547 192.844 39.1431 191.168 42.197C185.936 51.7332 180.358 61.4474 174.216 70.4654C169.483 77.414 163.539 83.401 157.811 89.583C155.431 92.1509 151.354 94.7861 149.608 97.8012C149.282 98.3642 160.554 97.0295 161.517 96.9269C171.78 95.8331 182.079 96.4518 192.323 97.3932C214.11 99.3956 236.064 96.3441 257.944 96.3441C259.893 96.3441 278.14 95.3004 273.134 99.6663C267.317 104.739 259.187 107.12 252.111 110.041C242.572 113.979 233.127 117.954 223.432 121.523C212.595 125.513 202.801 131.426 191.533 134.579C190.888 134.76 184.139 135.196 184.302 135.978C184.874 138.721 199.733 140.539 201.862 140.874C210.515 142.237 217.489 143.621 224.89 148.393C232.901 153.558 240.502 160.398 249.437 164.072C255.218 166.448 264.337 167.744 265.903 174.505C267.196 180.084 271.252 183.391 266.693 188.668C259.762 196.692 249.339 194.385 240.08 193.972C222.641 193.194 205.429 190.983 188.069 189.95C179.795 189.458 171.586 192.028 163.401 192.865C152.267 194.002 141.023 194.267 129.861 193.389C123.419 192.883 116.984 192.273 110.539 191.815C105.178 191.434 98.9979 188.949 93.7691 189.134C91.83 189.203 103.446 201.167 104.098 201.724C111.683 208.204 120.183 213.727 128.038 219.909C138.937 228.487 155.034 230.593 168.444 233.315C176.456 234.94 189.242 237.694 193.659 245.321C198.404 253.515 191.319 258.968 182.965 260.592C162.312 264.608 142.728 267.358 124.757 255.172C109.494 244.822 96.0592 237.03 77.3638 234.247C67.4842 232.777 61.2505 232.449 53.2419 226.437C46.7117 221.534 42.4691 213.891 37.2619 207.786C33.0503 202.848 24.9925 194.462 18.6692 197.061" stroke="white" stroke-width="3" stroke-linecap="round"/>
</svg>
