<svg width="374" height="292" viewBox="0 0 374 292" fill="none" xmlns="http://www.w3.org/2000/svg">
<path d="M80.6387 219.625C81.9786 219.625 84.9215 220.186 86.0184 219.309C96.7381 210.733 110.849 204.957 122.569 197.632C149.471 180.818 170.739 158.187 195.671 138.929C231.595 111.181 272.816 92.8118 311.336 69.3082C322.394 62.5609 332.607 54.7444 342.191 46.0486C343.723 44.6581 348.221 41.4475 348.362 38.77C348.475 36.6176 341.39 36.3132 339.817 35.6055C337.178 34.4179 338.085 34.3814 337.76 32.7574C336.877 28.3409 320.706 20.1971 317.032 18.2003C311.31 15.0907 301.842 7.599 295.118 7.599C292.092 7.599 287.845 20.3922 285.782 22.8681C279.726 30.1355 271.658 34.2086 264.975 40.6688C261.035 44.4771 262.461 48.4889 260.703 53.0106C259.509 56.0799 256.575 59.1254 255.877 62.267C255.307 64.8295 255.881 67.008 254.295 69.3873C251.129 74.1358 243.776 78.6399 239.5 82.9158C229.636 92.7802 235.369 69.1235 236.969 65.036C242.272 51.4823 256.17 44.0944 266.083 34.1814C271.344 28.92 291.57 15.8229 281.431 6.64963C274.604 0.473075 256.298 3.1686 247.886 3.1686C232.796 3.1686 213.494 -1.74837 199.627 5.46291C189.363 10.8001 187.135 28.1841 185.307 38.058C184.074 44.7178 183.961 49.1414 180.402 55.1467C177.945 59.2929 175.192 65.3098 174.706 70.1784C173.615 81.0831 178.305 89.3607 183.171 98.5805C191.68 114.703 169.123 117.541 157.538 114.562C146.726 111.781 150.851 95.9713 151.525 88.1374C152.881 72.3806 152.842 57.9261 157.617 42.8049C160.038 35.1385 160.766 27.0452 163.946 19.6244C165.479 16.0483 168.908 14.3476 170.987 11.08C175.368 4.19567 154.362 2.98278 151.05 3.24771C137.913 4.29873 121.752 1.9828 109.12 5.3838C93.733 9.52639 91.1028 16.4238 86.3349 30.2257C84.1155 36.6503 76.947 42.1503 80.0057 48.7384C82.267 53.6087 79.8253 59.6203 78.8981 64.7195C76.3752 78.5958 81.0864 91.2177 88.2336 102.853C94.2777 112.692 98.9673 124.441 101.683 135.606C102.945 140.796 110.271 155.664 107.538 160.448C104.892 165.078 93.6743 155.439 92.1102 154.04C83.1749 146.045 81.3531 138.303 77.5532 127.615C73.7432 116.9 66.9489 107.632 62.3633 97.3146C59.2303 90.2654 61.4129 82.2756 60.4645 74.8462C58.9128 62.6915 51.1091 51.7779 47.1733 40.2732C44.9314 33.7201 41.2089 26.2248 35.0688 22.4725C30.0193 19.3867 25.021 19.9594 19.8789 22.7098C5.84381 30.217 2.31548 39.6568 2.31548 54.7511C2.31548 64.9202 0.982072 75.8897 5.1636 85.4475C9.10561 94.4578 16.7753 101.977 22.727 109.656C27.3884 115.671 31.6165 121.405 33.6448 128.802C35.7829 136.6 33.3091 142.443 32.5372 150.163C30.858 166.955 44.3032 174.109 53.898 185.448C57.8676 190.139 61.2224 194.605 64.6576 199.689C67.9552 204.569 65.4388 210.844 67.3475 216.223C71.7702 228.688 82.6455 235.09 94.0881 240.195C108.381 246.572 121.489 254.551 136.098 260.29C150.858 266.089 163.431 275.787 178.266 281.493C191.005 286.392 204.244 289.404 217.902 289.404C232.132 289.404 251.225 292.649 264.421 286.398C272.715 282.469 281.746 275.956 288.235 269.467C299.914 257.788 282.286 250.717 273.045 247.315C249.424 238.622 225.167 231.091 200.892 224.53C183.391 219.8 166.84 212.629 149.31 207.916C149.13 207.868 136.359 203.978 138.234 202.853C141.476 200.908 149.371 200.418 152.949 200.005C160.291 199.158 166.503 200.673 173.519 202.537C183.848 205.28 194.858 204.685 205.323 206.888C219.054 209.779 232.618 212.771 246.541 214.641C258.074 216.19 270.523 216.765 281.431 221.129C293.106 225.799 305.138 237.168 318.535 235.053C330.234 233.206 355.599 212.331 333.725 205.543C308.555 197.732 278.947 200.718 252.95 197.157C236.27 194.872 219.856 189.351 203.424 185.448C196.459 183.794 189.956 180.589 183.171 178.328C181.885 177.899 171.328 175.075 172.411 174.056C176.036 170.644 188.619 170.423 193.139 170.1C210.313 168.873 227.482 173.292 244.405 175.48C260.057 177.503 275.601 179.141 291.083 182.283C302.454 184.592 313.265 188.689 324.865 189.72C332.451 190.394 354.842 195.969 359.042 186.635C361.393 181.411 362.602 175.484 362.602 169.783C362.602 162.308 366.441 155.561 366.795 147.948C367.582 131.036 361.257 125.831 343.931 127.853C313.027 131.458 281.83 133.99 251.051 138.454C238.269 140.308 226.282 143.946 213.234 144.15C207.37 144.242 222.506 139.582 224.469 138.771C242.714 131.227 263.275 126.167 282.697 122.789C295.167 120.621 307.696 121.178 320.197 118.834C328.454 117.286 336.881 116.56 345.197 115.353C353.051 114.213 366.324 113.788 369.01 104.118C371.752 94.2489 374.83 86.7718 369.089 77.3778C365.838 72.058 364.228 66.2599 361.178 60.9221C360.236 59.2737 355.181 53.4976 353.346 53.0897C351.314 52.6383 349.786 53.6193 349.786 50.8745C349.786 46.326 340.767 49.7973 338.393 50.1625" stroke="white" stroke-width="3" stroke-linecap="round"/>
</svg>
