<svg width="252" height="254" viewBox="0 0 252 254" fill="none" xmlns="http://www.w3.org/2000/svg">
<path d="M18 187C12.5222 187 11.9745 174.504 11.3889 171.778C2.59389 130.836 -4.26953 89.9175 9.88888 49.2222C15.4214 33.3201 24.3791 19.7342 31.3333 4.66667C33.6864 -0.431586 32.7892 2.82322 32.5 7.27778C31.526 22.2769 33.8039 36.8483 36.5555 51.5556C39.1853 65.6112 41.6546 80.1764 46.2222 93.7778C48.0112 99.1049 50.3771 104.572 53 109.556C55.0082 113.371 58.8188 103.7 59.7222 102.444C70.9255 86.8691 87.618 75.4473 103.222 64.7778C114.658 56.9586 126.098 49.8332 139.556 46.0556C145.828 44.2948 152.061 43.1823 158.222 41C162.885 39.3487 167.908 37.4113 172.889 37.0556C176.161 36.8218 176.254 37.478 174.722 40.3889C169.938 49.4784 164.838 58.7377 159.222 67.3333C154.895 73.9565 149.46 79.6631 144.222 85.5556C142.047 88.0032 138.319 90.515 136.722 93.3889C136.424 93.9255 146.731 92.6534 147.611 92.5556C156.995 91.513 166.412 92.1027 175.778 93C195.699 94.9086 215.772 92 235.778 92C237.56 92 254.244 91.0052 249.667 95.1667C244.348 100.002 236.914 102.271 230.444 105.056C221.723 108.809 213.086 112.598 204.222 116C194.314 119.803 185.359 125.439 175.056 128.444C174.466 128.616 168.295 129.032 168.444 129.778C168.967 132.392 182.553 134.125 184.5 134.444C192.412 135.743 198.788 137.063 205.556 141.611C212.881 146.534 219.83 153.054 228 156.556C233.286 158.821 241.624 160.056 243.056 166.5C244.237 171.818 247.946 174.97 243.778 180C237.44 187.649 227.91 185.449 219.444 185.056C203.499 184.314 187.761 182.207 171.889 181.222C164.323 180.753 156.818 183.203 149.333 184C139.153 185.084 128.872 185.337 118.667 184.5C112.777 184.017 106.893 183.437 101 183C96.0982 182.637 90.4475 180.267 85.6667 180.444C83.8936 180.51 94.5148 191.913 95.1111 192.444C102.046 198.621 109.818 203.885 117 209.778C126.965 217.954 141.683 219.962 153.944 222.556C161.27 224.105 172.961 226.73 177 234C181.339 241.81 174.861 247.007 167.222 248.556C148.338 252.383 130.432 255.005 114 243.389C100.045 233.524 87.7605 226.097 70.6667 223.444C61.6334 222.043 55.9337 221.731 48.6111 216C42.6403 211.327 38.7611 204.041 34 198.222C30.1491 193.516 22.7815 185.522 17 188" stroke="white" stroke-width="3" stroke-linecap="round"/>
</svg>
