<svg width="356" height="242" viewBox="0 0 356 242" fill="none" xmlns="http://www.w3.org/2000/svg">
<path d="M2 200.357C3.99325 200.357 8.47649 199.507 9.79646 201.223C15.7921 209.017 25.4844 209.979 34.5574 212.701C46.4403 216.266 56.4425 224.13 68.2699 227.355C75.1088 229.221 79.1869 233.589 86.6782 234.213C92.8853 234.731 98.9918 236.132 105.159 236.668C109.901 237.08 114.496 236.005 118.947 238.039C128.762 242.526 138.279 239.442 148.256 238.112C159.953 236.552 171.554 238.214 182.907 234.43C195.892 230.101 213.234 228.439 224.704 220.497C228.582 217.813 227.237 212.751 230.768 210.102C235.247 206.743 239.178 205.25 244.701 203.966C254.485 201.691 268.981 196.334 275.454 188.012C277.219 185.743 280.562 183.93 281.879 181.443C284.11 177.228 283.826 174.665 287.582 170.759C293.811 164.281 297.151 156.283 304.113 150.835C313.855 143.211 323.718 136.574 334.36 130.188C340.57 126.463 349.114 119.922 351.83 113.007C354.915 105.155 355.282 101.775 352.913 93.877C351.285 88.4516 348.943 82.5066 348.943 76.8403C348.943 73.9738 348.462 70.6295 349.087 67.8167C350.016 63.6358 352.735 61.0694 352.841 56.4107C352.972 50.6507 352.505 44.7074 347.643 40.8178C341.393 35.8179 334.487 28.779 327.574 25.0083C321.184 21.5227 316.365 15.1463 310.61 10.6426C300.113 2.42733 300.349 0.692209 285.271 2.84613" stroke="white" stroke-width="3" stroke-linecap="round"/>
</svg>
