<svg width="236" height="183" viewBox="0 0 236 183" fill="none" xmlns="http://www.w3.org/2000/svg">
<path d="M115.383 180C115.13 182.023 110.634 180.731 109.661 180.5C67.8288 170.592 21.6891 145.381 6.38296 102.667C-7.47457 63.9945 12.9282 28.3652 47.883 11.4444C74.7615 -1.56686 102.579 -0.142013 129.827 10.5555C151.657 19.1258 173.698 28.7327 194.161 40.2222C210.239 49.2496 226.651 61.1603 232.605 79.5C237.268 93.8601 232.069 111.832 227.383 125.556C223.034 138.293 214.2 148.294 203.161 155.778C184.521 168.415 162.881 172 140.827 172C135.589 172 130.542 171.273 125.327 171.056C120.716 170.863 116.461 172 111.939 172C106.589 172 92.2846 173.295 90.383 179" stroke="white" stroke-width="3" stroke-linecap="round"/>
</svg>
